<svg width="300" height="300" viewBox="0 0 300 300" fill="none" xmlns="http://www.w3.org/2000/svg">
<path d="M165.946 45C165.902 45.0404 165.857 45.0801 165.812 45.1189C165.796 45.1324 165.783 45.1459 165.769 45.16C165.835 45.0996 165.853 45.0861 165.946 45ZM166.388 45.3633C165.848 45.348 165.456 45.5156 165.339 45.5584C154.631 54.9416 150.093 65.1404 139.939 76.023C129.831 86.8541 114.34 97.2363 83.2922 106.038L65.0771 130.723C64.5916 131.381 63.9597 131.918 63.2313 132.29C62.5029 132.661 61.6979 132.859 60.8801 132.866L31.1438 133.13L22.5363 128.241L21 198.403L29.5564 193.466H63.1189C63.8952 193.466 64.6618 193.638 65.3641 193.968C66.0664 194.299 66.6871 194.78 67.1818 195.378C75.1072 204.959 78.9152 214.152 89.4158 218.721L206.929 254.978C214.24 254.662 220.079 253.797 223.702 251.715C226.787 249.943 228.912 247.339 230.119 241.998C226.921 240.647 216.332 236.171 202.471 230.365C194.564 227.054 186.633 223.748 180.653 221.287C177.663 220.056 175.156 219.036 173.405 218.341C172.531 217.994 171.84 217.726 171.415 217.57C171.293 217.525 171.267 217.517 171.2 217.494C171.108 217.507 171.024 217.555 170.088 217.097C169.506 216.812 167.339 210.894 167.339 210.893C167.339 210.893 170.645 207.362 171.13 207.24C172.618 206.868 172.876 207.094 173.171 207.135C173.288 207.151 173.319 207.164 173.398 207.178C173.474 207.187 173.571 207.199 173.771 207.221C174.293 207.277 175.135 207.359 176.222 207.461C178.398 207.663 181.572 207.946 185.404 208.28C193.069 208.948 203.381 209.822 213.746 210.689C224.111 211.554 234.532 212.413 242.425 213.05C246.37 213.369 249.686 213.632 252.037 213.812C253.213 213.903 254.15 213.973 254.793 214.018C255.053 214.036 255.226 214.048 255.379 214.056C260.039 213.711 262.466 212.34 263.804 210.908C265.161 209.455 265.723 207.649 265.606 205.355C265.376 200.844 261.589 195.57 257.894 194.4L184.624 184.796C183.338 184.627 182.159 183.99 181.313 183.006C180.467 182.022 180.014 180.76 180.04 179.463C180.065 178.165 180.569 176.923 181.453 175.974C182.338 175.024 183.541 174.434 184.833 174.316C184.833 174.316 204.99 172.492 225.407 170.596C235.617 169.646 245.893 168.68 253.737 167.915C257.66 167.532 260.977 167.2 263.358 166.947C264.548 166.821 265.509 166.714 266.17 166.635C266.472 166.598 266.839 166.52 267.058 166.477C273.448 164.663 276.548 162.275 277.701 160.586C278.879 158.861 278.869 157.604 278.004 155.521C276.278 151.361 269.048 146.273 264.369 145.957L182.127 143.811C180.832 143.777 179.595 143.268 178.651 142.38C177.708 141.493 177.124 140.289 177.012 138.998C176.899 137.708 177.265 136.421 178.041 135.383C178.816 134.345 179.946 133.629 181.216 133.372C181.216 133.372 199.095 129.742 217.488 126.023C226.684 124.163 236.008 122.281 243.292 120.82C250.578 119.357 255.509 118.368 256.974 118.114C262.535 117.152 265.095 115.024 266.433 112.745C267.77 110.467 267.988 107.542 267.016 104.439C265.316 99.0094 260.302 94.0014 253.439 93.8531C252.459 93.832 251.441 93.9105 250.39 94.1004C250.353 94.1066 250.316 94.1125 250.279 94.118L163.001 107.984C158.6 114.066 154.505 117.299 148.966 121.447C147.781 154.891 141.672 171.57 132.952 180.38C123.997 189.424 112.796 188.831 109.318 189.701L106.759 179.47C113.869 177.692 119.631 178.846 125.456 172.961C131.282 167.075 137.636 152.666 138.545 118.584C138.566 117.788 138.768 117.008 139.133 116.301C139.499 115.594 140.02 114.979 140.658 114.503C147.938 109.056 150.743 107.309 155.349 100.507L176.166 54.552C175.542 49.868 173.228 47.7041 170.517 46.4115C169.052 45.7131 167.472 45.392 166.39 45.3627L166.388 45.3633Z" fill="black"/>
</svg>
