<svg width="300" height="300" viewBox="0 0 300 300" fill="none" xmlns="http://www.w3.org/2000/svg">
<path d="M174.167 43.0036C160.852 42.8781 144.829 46.0471 126.104 52.8969L87.4259 115.053C86.9179 115.87 86.2138 116.544 85.379 117.013C84.5443 117.482 83.6057 117.731 82.6503 117.737L16 118.127L16.1754 193.502L75.7828 193.975C76.9893 193.984 78.1613 194.382 79.1289 195.109C80.0965 195.837 80.8093 196.856 81.164 198.02C86.1837 214.483 97.9663 223.838 112.137 229.634C123.89 234.441 137.1 236.454 148.143 237.242C147.56 231.087 147.592 223.969 149.209 217.179C150.373 212.298 152.408 207.492 156.05 203.662C158.993 200.565 163.029 198.297 167.762 197.358C166.237 191.787 166.563 186.175 167.988 181.177C170.106 173.744 173.961 167.096 176.889 160.895C176.89 160.89 176.89 160.885 176.891 160.879C177.461 155.219 177.137 148.058 178.162 141.189C178.675 137.755 179.534 134.309 181.406 131.127C182.609 129.084 184.318 127.194 186.425 125.732L179.006 106.928C174.114 125.582 164.01 138.339 153.604 146.54C146.56 152.091 139.443 155.667 133.735 157.996C128.029 160.327 123.08 161.662 122.735 161.788L118.884 151.006C121.287 150.132 124.477 149.413 129.476 147.371C134.477 145.33 140.636 142.218 146.615 137.508C158.573 128.084 170.01 112.636 170.689 84.6093C170.72 83.2889 171.203 82.0199 172.055 81.0172C172.906 80.0145 174.075 79.3395 175.364 79.1066C176.652 78.8737 177.98 79.0971 179.124 79.739C180.268 80.3809 181.157 81.4018 181.64 82.6291L198.137 124.442C206.579 128.444 212.512 128.587 217.861 126.969C222.736 125.494 227.443 122.155 232.378 118.366C230.36 101.363 225.458 84.1324 219.093 66.715C210.959 53.8342 200.005 46.3909 184.711 43.8759C181.408 43.3328 177.891 43.0392 174.164 43.0036H174.167ZM255.185 64.8341L231.738 68.2902C237.087 83.6008 241.381 99.0469 243.46 114.664C259.45 117.349 266.371 114.115 277.981 111.036C281.502 97.955 282.873 86.6557 280.418 79.3812C279.094 75.4559 276.947 72.5072 273.006 69.9998C269.159 67.5523 263.38 65.651 255.184 64.8335L255.185 64.8341ZM276.384 123.285C266.798 125.961 257.273 128.579 241.399 125.932C235.602 130.491 229.279 135.48 221.123 137.947C213.228 140.336 203.828 139.882 193.248 134.895C192.313 135.367 191.766 135.97 191.17 136.981C190.417 138.261 189.778 140.302 189.391 142.896C188.804 146.825 188.727 151.889 188.466 157.074C215.132 164.421 241.714 168.935 268.221 169.669C275.075 164.397 279.968 158.387 281.842 151.336C283.78 144.035 282.862 135.093 276.385 123.286L276.384 123.285ZM185.957 168.363C183.137 174.219 180.259 179.582 178.902 184.344C177.177 190.396 177.207 194.802 182.144 200.708C201.47 213.048 223.597 217.004 246.768 220.105C254.957 214.625 262.089 209.125 265.33 203.466C268.673 197.627 269.31 191.588 262.989 180.968C237.244 179.831 211.563 175.385 185.957 168.363H185.957ZM173.375 208.081C172.889 208.243 172.382 208.337 171.87 208.361C168.108 208.571 166.016 209.733 164.245 211.596C162.475 213.458 161.096 216.314 160.25 219.861C158.794 225.971 159.109 233.731 159.939 239.72C178.445 248.751 197.22 255.822 218.65 256.536C230.852 253.952 235.174 250.019 237.693 245.259C239.649 241.565 240.383 236.655 241.361 230.965C218.821 227.835 195.922 223.391 175.216 209.883C174.782 209.6 174.389 209.259 174.047 208.869C173.818 208.608 173.596 208.345 173.379 208.081H173.375Z" fill="black"/>
</svg>
