<svg width="300" height="300" viewBox="0 0 300 300" fill="none" xmlns="http://www.w3.org/2000/svg">
<path d="M125.833 43.0036C139.148 42.8781 155.171 46.0471 173.896 52.8969L212.574 115.053C213.082 115.87 213.786 116.544 214.621 117.013C215.456 117.482 216.394 117.731 217.35 117.737L284 118.127L283.825 193.502L224.217 193.975C223.011 193.984 221.839 194.382 220.871 195.109C219.904 195.837 219.191 196.856 218.836 198.02C213.816 214.483 202.034 223.838 187.863 229.634C176.11 234.441 162.9 236.454 151.857 237.242C152.44 231.087 152.408 223.969 150.791 217.179C149.627 212.298 147.592 207.492 143.95 203.662C141.007 200.565 136.971 198.297 132.238 197.358C133.763 191.787 133.437 186.175 132.012 181.177C129.894 173.744 126.039 167.096 123.111 160.895C123.11 160.89 123.11 160.885 123.109 160.879C122.539 155.219 122.863 148.058 121.838 141.189C121.325 137.755 120.466 134.309 118.594 131.127C117.391 129.084 115.682 127.194 113.575 125.732L120.994 106.928C125.886 125.582 135.99 138.339 146.396 146.54C153.44 152.091 160.557 155.667 166.265 157.996C171.971 160.327 176.92 161.662 177.265 161.788L181.116 151.006C178.713 150.132 175.523 149.413 170.524 147.371C165.523 145.33 159.364 142.218 153.385 137.508C141.427 128.084 129.99 112.636 129.311 84.6093C129.28 83.2889 128.797 82.0199 127.945 81.0172C127.094 80.0145 125.925 79.3395 124.636 79.1066C123.348 78.8737 122.02 79.0971 120.876 79.739C119.732 80.3809 118.843 81.4018 118.36 82.6291L101.863 124.442C93.4205 128.444 87.4879 128.587 82.1389 126.969C77.2636 125.494 72.5574 122.155 67.6215 118.366C69.6403 101.363 74.5421 84.1324 80.9074 66.715C89.0411 53.8342 99.9953 46.3909 115.289 43.8759C118.592 43.3328 122.109 43.0392 125.836 43.0036H125.833ZM44.8153 64.8341L68.2618 68.2902C62.9134 83.6008 58.6192 99.0469 56.5405 114.664C40.5501 117.349 33.6289 114.115 22.0186 111.036C18.4984 97.955 17.1269 86.6557 19.5816 79.3812C20.9064 75.4559 23.0532 72.5072 26.9942 69.9998C30.8405 67.5523 36.6198 65.651 44.8159 64.8335L44.8153 64.8341ZM23.6159 123.285C33.2018 125.961 42.7265 128.579 58.6009 125.932C64.3985 130.491 70.7209 135.48 78.8767 137.947C86.7719 140.336 96.1723 139.882 106.752 134.895C107.687 135.367 108.234 135.97 108.83 136.981C109.583 138.261 110.222 140.302 110.609 142.896C111.196 146.825 111.273 151.889 111.534 157.074C84.8679 164.421 58.2861 168.935 31.7786 169.669C24.925 164.397 20.032 158.387 18.1584 151.336C16.2197 144.035 17.1383 135.093 23.6153 123.286L23.6159 123.285ZM114.043 168.363C116.863 174.219 119.741 179.582 121.098 184.344C122.823 190.396 122.793 194.802 117.856 200.708C98.5305 213.048 76.4031 217.004 53.2316 220.105C45.0431 214.625 37.9106 209.125 34.6705 203.466C31.3269 197.627 30.6898 191.588 37.011 180.968C62.7563 179.831 88.4374 175.385 114.043 168.363H114.043ZM126.625 208.081C127.111 208.243 127.618 208.337 128.13 208.361C131.892 208.571 133.984 209.733 135.755 211.596C137.525 213.458 138.904 216.314 139.75 219.861C141.206 225.971 140.891 233.731 140.061 239.72C121.555 248.751 102.78 255.822 81.3503 256.536C69.1482 253.952 64.8262 250.019 62.3065 245.259C60.3509 241.565 59.6172 236.655 58.6387 230.965C81.1793 227.835 104.078 223.391 124.784 209.883C125.218 209.6 125.611 209.259 125.953 208.869C126.182 208.608 126.404 208.345 126.621 208.081H126.625Z" fill="black"/>
</svg>
