<svg width="300" height="300" viewBox="0 0 300 300" fill="none" xmlns="http://www.w3.org/2000/svg">
<path d="M134.054 45C134.098 45.0404 134.143 45.0801 134.188 45.1189C134.204 45.1324 134.217 45.1459 134.231 45.16C134.165 45.0996 134.147 45.0861 134.054 45ZM133.612 45.3633C134.152 45.348 134.544 45.5156 134.661 45.5584C145.369 54.9416 149.907 65.1404 160.061 76.023C170.169 86.8541 185.66 97.2363 216.708 106.038L234.923 130.723C235.408 131.381 236.04 131.918 236.769 132.29C237.497 132.661 238.302 132.859 239.12 132.866L268.856 133.13L277.464 128.241L279 198.403L270.444 193.466H236.881C236.105 193.466 235.338 193.638 234.636 193.968C233.934 194.299 233.313 194.78 232.818 195.378C224.893 204.959 221.085 214.152 210.584 218.721L93.0709 254.978C85.7596 254.662 79.9207 253.797 76.2984 251.715C73.2129 249.943 71.0883 247.339 69.8813 241.998C73.0787 240.647 83.6684 236.171 97.5287 230.365C105.436 227.054 113.367 223.748 119.347 221.287C122.337 220.056 124.844 219.036 126.595 218.341C127.469 217.994 128.16 217.726 128.585 217.57C128.707 217.525 128.733 217.517 128.8 217.494C128.892 217.507 128.976 217.555 129.912 217.097C130.494 216.812 132.661 210.894 132.661 210.893C132.661 210.893 129.355 207.362 128.87 207.24C127.382 206.868 127.124 207.094 126.829 207.135C126.712 207.151 126.681 207.164 126.602 207.178C126.526 207.187 126.429 207.199 126.229 207.221C125.707 207.277 124.865 207.359 123.778 207.461C121.602 207.663 118.428 207.946 114.596 208.28C106.931 208.948 96.6193 209.822 86.2541 210.689C75.8889 211.554 65.468 212.413 57.5754 213.05C53.6297 213.369 50.3145 213.632 47.9625 213.812C46.7871 213.903 45.8496 213.973 45.2074 214.018C44.9467 214.036 44.7738 214.048 44.6215 214.056C39.9609 213.711 37.534 212.34 36.1957 210.908C34.8393 209.455 34.2773 207.649 34.3939 205.355C34.6236 200.844 38.4105 195.57 42.106 194.4L115.376 184.796C116.662 184.627 117.841 183.99 118.687 183.006C119.533 182.022 119.986 180.76 119.96 179.463C119.935 178.165 119.431 176.923 118.547 175.974C117.662 175.024 116.459 174.434 115.167 174.316C115.167 174.316 95.0103 172.492 74.5928 170.596C64.3828 169.646 54.1066 168.68 46.2627 167.915C42.3399 167.532 39.0234 167.2 36.6416 166.947C35.4521 166.821 34.4912 166.714 33.8303 166.635C33.5279 166.598 33.1611 166.52 32.942 166.477C26.5518 164.663 23.4522 162.275 22.299 160.586C21.1213 158.861 21.1313 157.604 21.9961 155.521C23.7223 151.361 30.9521 146.273 35.6309 145.957L117.873 143.811C119.168 143.777 120.405 143.268 121.349 142.38C122.292 141.493 122.876 140.289 122.988 138.998C123.101 137.708 122.735 136.421 121.959 135.383C121.184 134.345 120.054 133.629 118.784 133.372C118.784 133.372 100.905 129.742 82.5123 126.023C73.316 124.163 63.992 122.281 56.7076 120.82C49.4221 119.357 44.4908 118.368 43.026 118.114C37.4654 117.152 34.9049 115.024 33.5672 112.745C32.2301 110.467 32.0115 107.542 32.9836 104.439C34.684 99.0094 39.6984 94.0014 46.5609 93.8531C47.5406 93.832 48.559 93.9105 49.6102 94.1004C49.6472 94.1066 49.6843 94.1125 49.7215 94.118L136.999 107.984C141.4 114.066 145.495 117.299 151.034 121.447C152.219 154.891 158.328 171.57 167.048 180.38C176.003 189.424 187.204 188.831 190.682 189.701L193.241 179.47C186.131 177.692 180.369 178.846 174.544 172.961C168.718 167.075 162.364 152.666 161.455 118.584C161.434 117.788 161.232 117.008 160.867 116.301C160.501 115.594 159.98 114.979 159.342 114.503C152.062 109.056 149.257 107.309 144.651 100.507L123.834 54.552C124.458 49.868 126.772 47.7041 129.483 46.4115C130.948 45.7131 132.528 45.392 133.61 45.3627L133.612 45.3633Z" fill="black"/>
</svg>
