<svg width="300" height="300" viewBox="0 0 300 300" fill="#F9C68A" xmlns="http://www.w3.org/2000/svg">
<path d="M178.33 73.0096C182.128 73.0921 185.885 73.7324 189.619 74.8083C206.797 79.7592 223.934 95.5775 237.925 113.215C238.444 113.869 239.1 114.402 239.847 114.776C240.594 115.15 241.414 115.356 242.249 115.379L286.287 116.631L286.448 110.95L286.459 110.952L287 183.904L239.682 183.965C238.231 183.966 236.835 184.518 235.776 185.509C234.717 186.5 234.074 187.855 233.978 189.301C234.025 188.597 232.871 191.739 230.052 194.778C227.231 197.817 223.222 201.272 219.072 204.267C215.889 206.566 212.596 208.605 209.763 210.056C209.74 209.027 209.644 208.009 209.487 207.023C208.709 202.175 206.61 197.461 203.829 193.199C201.048 188.935 197.598 185.136 193.494 182.505C190.935 180.863 187.843 179.623 184.634 179.484C179.971 169.65 172.825 157.346 157.407 153.096C156.489 152.842 155.83 152.777 155.29 152.791C154.75 152.804 154.329 152.897 153.889 152.959C153.628 152.998 153.377 153.051 153.123 153.099C161.351 145.314 167.012 136.434 171.243 127.162C180.068 144.416 197.175 154.965 211.336 162.489L216.71 152.394C199.232 143.109 180.583 130.928 177.293 109.197C177.099 107.919 176.477 106.745 175.529 105.865C174.58 104.986 173.361 104.453 172.071 104.355C170.78 104.256 169.495 104.598 168.423 105.323C167.352 106.048 166.559 107.115 166.172 108.348C161.401 123.603 154.934 137.152 141.608 147.979C136.091 151.01 126.431 149.066 122.607 138.285C126.481 123.742 128.48 113.078 135.309 99.1349C150.683 79.5534 164.765 72.7168 178.33 73.0089L178.33 73.0096ZM36.4041 85.5898C39.2275 85.6216 42.4083 85.9138 45.9388 86.5426L121.181 102.686C117.498 111.846 115.48 120.016 113.239 128.844C109.142 127.984 95.0854 125.034 78.5775 121.531C69.0308 119.505 59.4001 117.449 51.997 115.842C48.296 115.038 45.1484 114.346 42.8629 113.83C41.7209 113.571 40.7912 113.356 40.1369 113.198C39.6504 113.081 39.1321 112.919 39.1525 112.934C31.0015 109.998 25.4794 106.079 22.3635 102.41C19.2171 98.7068 18.5608 95.5375 19.0301 93.284C19.4994 91.0305 21.0408 88.8869 25.3204 87.2355C27.9912 86.2047 31.6985 85.5371 36.4029 85.5905L36.4041 85.5898ZM111.313 140.826C114.882 152.303 123.921 159.122 133.251 160.443C131.914 161.042 130.569 161.655 129.232 162.282C123.726 164.865 118.403 167.605 114.305 170.132C113.299 170.754 112.372 171.352 111.512 171.96C81.6228 175.837 46.3451 177.073 24.1332 175.245C19.3881 174.853 16.5597 173.332 14.9845 171.711C13.4094 170.091 12.8238 168.302 13.0451 166.033C13.4857 161.493 18.1539 154.768 29.6185 151.699C42.194 148.333 60.8525 145.423 77.6777 143.487C91.5212 141.895 104.385 140.984 111.313 140.826ZM155.069 164.379C164.891 167.385 169.65 174.85 173.608 183.052L136.82 201.935C135.229 202.622 134.276 202.503 132.375 201.456C130.455 200.398 128.05 198.122 125.871 195.259C122.344 190.625 119.724 185.074 118.196 181.352C118.858 180.867 119.302 180.487 120.32 179.859C123.768 177.731 128.853 175.089 134.098 172.63C139.341 170.17 144.788 167.864 149.035 166.289C151.159 165.503 152.999 164.898 154.24 164.565C154.643 164.457 154.829 164.427 155.068 164.379H155.069ZM184.043 190.878C184.245 190.862 184.488 190.877 184.786 190.943C185.39 191.076 186.204 191.418 187.31 192.127C189.523 193.546 192.185 196.293 194.24 199.442C196.295 202.591 197.756 206.159 198.184 208.833C198.613 211.507 198.125 212.648 197.619 213.133C197.514 213.233 194.958 214.97 191.691 216.531C188.424 218.091 184.251 219.815 179.867 221.39C171.48 224.408 162.062 226.75 157.335 227C150.974 225.129 148.119 222.7 146.61 220.021C145.351 217.784 144.876 214.82 145.026 211.139L183.551 190.999C183.679 190.942 183.84 190.895 184.042 190.878H184.043Z" fill="#F9C68A"/>
</svg>
