<svg width="300" height="300" viewBox="0 0 300 300" fill="#F9C68A" xmlns="http://www.w3.org/2000/svg">
<path d="M121.67 73.0096C117.872 73.0921 114.115 73.7324 110.381 74.8083C93.2026 79.7592 76.0664 95.5775 62.0748 113.215C61.5559 113.869 60.8999 114.402 60.1528 114.776C59.4058 115.15 58.5859 115.356 57.7507 115.379L13.7128 116.631L13.552 110.95L13.5405 110.952L13 183.904L60.3184 183.965C61.7693 183.966 63.1655 184.518 64.2244 185.509C65.2834 186.5 65.926 187.855 66.0224 189.301C65.9747 188.597 67.1289 191.739 69.9485 194.778C72.7687 197.817 76.778 201.272 80.9279 204.267C84.1105 206.566 87.4039 208.605 90.2374 210.056C90.2603 209.027 90.3557 208.009 90.5134 207.023C91.2911 202.175 93.3896 197.461 96.171 193.199C98.9518 188.935 102.402 185.136 106.506 182.505C109.065 180.863 112.157 179.623 115.366 179.484C120.029 169.65 127.175 157.346 142.593 153.096C143.511 152.842 144.17 152.777 144.71 152.791C145.25 152.804 145.671 152.897 146.111 152.959C146.372 152.998 146.623 153.051 146.877 153.099C138.649 145.314 132.988 136.434 128.757 127.162C119.932 144.416 102.825 154.965 88.6636 162.489L83.2902 152.394C100.768 143.109 119.417 130.928 122.707 109.197C122.901 107.919 123.523 106.745 124.471 105.865C125.42 104.986 126.639 104.453 127.929 104.355C129.22 104.256 130.505 104.598 131.577 105.323C132.648 106.048 133.441 107.115 133.828 108.348C138.599 123.603 145.066 137.152 158.392 147.979C163.909 151.01 173.569 149.066 177.393 138.285C173.519 123.742 171.52 113.078 164.691 99.1349C149.317 79.5534 135.235 72.7168 121.67 73.0089L121.67 73.0096ZM263.596 85.5898C260.772 85.6216 257.592 85.9138 254.061 86.5426L178.819 102.686C182.502 111.846 184.52 120.016 186.761 128.844C190.858 127.984 204.915 125.034 221.422 121.531C230.969 119.505 240.6 117.449 248.003 115.842C251.704 115.038 254.852 114.346 257.137 113.83C258.279 113.571 259.209 113.356 259.863 113.198C260.35 113.081 260.868 112.919 260.848 112.934C268.998 109.998 274.521 106.079 277.636 102.41C280.783 98.7068 281.439 95.5375 280.97 93.284C280.501 91.0305 278.959 88.8869 274.68 87.2355C272.009 86.2047 268.302 85.5371 263.597 85.5905L263.596 85.5898ZM188.687 140.826C185.118 152.303 176.079 159.122 166.749 160.443C168.086 161.042 169.431 161.655 170.768 162.282C176.274 164.865 181.597 167.605 185.695 170.132C186.701 170.754 187.628 171.352 188.488 171.96C218.377 175.837 253.655 177.073 275.867 175.245C280.612 174.853 283.44 173.332 285.015 171.711C286.591 170.091 287.176 168.302 286.955 166.033C286.514 161.493 281.846 154.768 270.382 151.699C257.806 148.333 239.148 145.423 222.322 143.487C208.479 141.895 195.615 140.984 188.687 140.826ZM144.931 164.379C135.109 167.385 130.35 174.85 126.392 183.052L163.18 201.935C164.771 202.622 165.724 202.503 167.625 201.456C169.545 200.398 171.95 198.122 174.129 195.259C177.656 190.625 180.276 185.074 181.804 181.352C181.142 180.867 180.698 180.487 179.68 179.859C176.232 177.731 171.147 175.089 165.902 172.63C160.659 170.17 155.212 167.864 150.965 166.289C148.841 165.503 147.001 164.898 145.76 164.565C145.357 164.457 145.171 164.427 144.932 164.379H144.931ZM115.957 190.878C115.755 190.862 115.512 190.877 115.214 190.943C114.61 191.076 113.796 191.418 112.69 192.127C110.477 193.546 107.815 196.293 105.76 199.442C103.705 202.591 102.244 206.159 101.816 208.833C101.387 211.507 101.875 212.648 102.381 213.133C102.486 213.233 105.042 214.97 108.309 216.531C111.576 218.091 115.749 219.815 120.133 221.39C128.52 224.408 137.938 226.75 142.665 227C149.026 225.129 151.881 222.7 153.39 220.021C154.649 217.784 155.124 214.82 154.974 211.139L116.449 190.999C116.321 190.942 116.16 190.895 115.958 190.878H115.957Z" fill="#F9C68A"/>
</svg>
