<svg width="323" height="326" viewBox="0 0 323 326" fill="none" xmlns="http://www.w3.org/2000/svg">
<path d="M135.833 56.0036C149.148 55.8781 165.171 59.0471 183.896 65.8969L222.574 128.053C223.082 128.87 223.786 129.544 224.621 130.013C225.456 130.482 226.394 130.731 227.35 130.737L294 131.127L293.825 206.502L234.217 206.975C233.011 206.984 231.839 207.382 230.871 208.109C229.904 208.837 229.191 209.856 228.836 211.02C223.816 227.483 212.034 236.838 197.863 242.634C186.11 247.441 172.9 249.454 161.857 250.242C162.44 244.087 162.408 236.969 160.791 230.179C159.627 225.298 157.592 220.492 153.95 216.662C151.007 213.565 146.971 211.297 142.238 210.358C143.763 204.787 143.437 199.175 142.012 194.177C139.894 186.744 136.039 180.096 133.111 173.895C133.11 173.89 133.11 173.885 133.109 173.879C132.539 168.219 132.863 161.058 131.838 154.189C131.325 150.755 130.466 147.309 128.594 144.127C127.391 142.084 125.682 140.194 123.575 138.732L130.994 119.928C135.886 138.582 145.99 151.339 156.396 159.54C163.44 165.091 170.557 168.667 176.265 170.996C181.971 173.327 186.92 174.662 187.265 174.788L191.116 164.006C188.713 163.132 185.523 162.413 180.524 160.371C175.523 158.33 169.364 155.218 163.385 150.508C151.427 141.084 139.99 125.636 139.311 97.6093C139.28 96.2889 138.797 95.0199 137.945 94.0172C137.094 93.0145 135.925 92.3395 134.636 92.1066C133.348 91.8737 132.02 92.0971 130.876 92.739C129.732 93.3809 128.843 94.4018 128.36 95.6291L111.863 137.442C103.421 141.444 97.4879 141.587 92.1389 139.969C87.2636 138.494 82.5574 135.155 77.6215 131.366C79.6403 114.363 84.5421 97.1324 90.9074 79.715C99.0411 66.8342 109.995 59.3909 125.289 56.8759C128.592 56.3328 132.109 56.0392 135.836 56.0036H135.833ZM54.8153 77.8341L78.2618 81.2902C72.9134 96.6008 68.6192 112.047 66.5405 127.664C50.5501 130.349 43.6289 127.115 32.0186 124.036C28.4984 110.955 27.1269 99.6557 29.5816 92.3812C30.9064 88.4559 33.0532 85.5072 36.9942 82.9998C40.8405 80.5523 46.6198 78.651 54.8159 77.8335L54.8153 77.8341ZM33.6159 136.285C43.2018 138.961 52.7265 141.579 68.6009 138.932C74.3985 143.491 80.7209 148.48 88.8767 150.947C96.7719 153.336 106.172 152.882 116.752 147.895C117.687 148.367 118.234 148.97 118.83 149.981C119.583 151.261 120.222 153.302 120.609 155.896C121.196 159.825 121.273 164.889 121.534 170.074C94.8679 177.421 68.2861 181.935 41.7786 182.669C34.925 177.397 30.032 171.387 28.1584 164.336C26.2197 157.035 27.1383 148.093 33.6153 136.286L33.6159 136.285ZM124.043 181.363C126.863 187.219 129.741 192.582 131.098 197.344C132.823 203.396 132.793 207.802 127.856 213.708C108.53 226.048 86.4031 230.004 63.2316 233.105C55.0431 227.625 47.9106 222.125 44.6705 216.466C41.3269 210.627 40.6898 204.588 47.011 193.968C72.7563 192.831 98.4374 188.385 124.043 181.363H124.043ZM136.625 221.081C137.111 221.243 137.618 221.337 138.13 221.361C141.892 221.571 143.984 222.733 145.755 224.596C147.525 226.458 148.904 229.314 149.75 232.861C151.206 238.971 150.891 246.731 150.061 252.72C131.555 261.751 112.78 268.822 91.3503 269.536C79.1482 266.952 74.8262 263.019 72.3065 258.259C70.3509 254.565 69.6172 249.655 68.6387 243.965C91.1793 240.835 114.078 236.391 134.784 222.883C135.218 222.6 135.611 222.259 135.953 221.869C136.182 221.608 136.404 221.345 136.621 221.081H136.625Z" fill="black"/>
</svg>
